Coordinates
nRows=410
nColumns=2
inDegrees=yes
endheader
time	ankle_angle_r	
1.33065	 18.662757	
1.36391	 18.686167	
1.39718	 18.695924	
1.43044	 18.691868	
1.46371	 18.685315	
1.49698	 18.683078	
1.53024	 18.683326	
1.56351	 18.684816	
1.59677	 18.687306	
1.63004	 18.687800	
1.66331	 18.681689	
1.69657	 18.663841	
1.72984	 18.635000	
1.7631	 18.605625	
1.79637	 18.584915	
1.82964	 18.577631	
1.8629	 18.588836	
1.89617	 18.614590	
1.92944	 18.642540	
1.9627	 18.665128	
1.99597	 18.676162	
2.02923	 18.671489	
2.0625	 18.660295	
2.09577	 18.656132	
2.12903	 18.660032	
2.1623	 18.662032	
2.19556	 18.654654	
2.22883	 18.642518	
2.2621	 18.638308	
2.29536	 18.646890	
2.32863	 18.657539	
2.3619	 18.657292	
2.39516	 18.648150	
2.42843	 18.643414	
2.46169	 18.648035	
2.49496	 18.656662	
2.52823	 18.668706	
2.56149	 18.682972	
2.59476	 18.687520	
2.62802	 18.675763	
2.66129	 18.657091	
2.69456	 18.646725	
2.72782	 18.655650	
2.76109	 18.679110	
2.79435	 18.698830	
2.82762	 18.706717	
2.86089	 18.708927	
2.89415	 18.710823	
2.92742	 18.716007	
2.96069	 18.725718	
2.99395	 18.733914	
3.02722	 18.735167	
3.06048	 18.729208	
3.09375	 18.718463	
3.12702	 18.711884	
3.16028	 18.717102	
3.19355	 18.728061	
3.22681	 18.735959	
3.26008	 18.739120	
3.29335	 18.736731	
3.32661	 18.729993	
3.35988	 18.724313	
3.39315	 18.723275	
3.42641	 18.727119	
3.45968	 18.732030	
3.49294	 18.731485	
3.52621	 18.725520	
3.55948	 18.720020	
3.59274	 18.717284	
3.62601	 18.715938	
3.65927	 18.714009	
3.69254	 18.710909	
3.72581	 18.707764	
3.75907	 18.703586	
3.79234	 18.698237	
3.8256	 18.694555	
3.85887	 18.689336	
3.89214	 18.675283	
3.9254	 18.655001	
3.95867	 18.640125	
3.99194	 18.636337	
4.0252	 18.638786	
4.05847	 18.642349	
4.09173	 18.645915	
4.125	 18.645914	
4.15827	 18.636872	
4.19153	 18.623213	
4.2248	 18.619092	
4.25806	 18.628760	
4.29133	 18.642843	
4.3246	 18.654350	
4.35786	 18.660209	
4.39113	 18.657407	
4.4244	 18.648064	
4.45766	 18.639022	
4.49093	 18.636774	
4.52419	 18.641005	
4.55746	 18.641265	
4.59073	 18.631109	
4.62399	 18.619774	
4.65726	 18.615210	
4.69052	 18.613262	
4.72379	 18.613827	
4.75706	 18.621230	
4.79032	 18.630679	
4.82359	 18.633642	
4.85685	 18.628657	
4.89012	 18.624556	
4.92339	 18.631093	
4.95665	 18.643260	
4.98992	 18.650039	
5.02319	 18.651700	
5.05645	 18.651827	
5.08972	 18.650358	
5.12298	 18.650757	
5.15625	 18.657166	
5.18952	 18.668188	
5.22278	 18.678670	
5.25605	 18.685325	
5.28931	 18.690367	
5.32258	 18.694677	
5.35585	 18.696090	
5.38911	 18.696430	
5.42238	 18.694917	
5.45565	 18.685062	
5.48891	 18.669114	
5.52218	 18.658604	
5.55544	 18.659817	
5.58871	 18.671240	
5.62198	 18.681705	
5.65524	 18.672931	
5.68851	 18.647957	
5.72177	 18.633932	
5.75504	 18.641110	
5.78831	 18.655284	
5.82157	 18.667525	
5.85484	 18.679591	
5.8881	 18.689856	
5.92137	 18.692385	
5.95464	 18.687740	
5.9879	 18.686950	
6.02117	 18.696836	
6.05444	 18.708877	
6.0877	 18.712135	
6.12097	 18.703957	
6.15423	 18.687949	
6.1875	 18.672179	
6.22077	 18.662316	
6.25403	 18.660456	
6.2873	 18.670218	
6.32056	 18.686527	
6.35383	 18.693408	
6.3871	 18.684893	
6.42036	 18.670702	
6.45363	 18.660262	
6.4869	 18.655295	
6.52016	 18.655154	
6.55343	 18.661188	
6.58669	 18.672582	
6.61996	 18.681788	
6.65323	 18.683726	
6.68649	 18.683199	
6.71976	 18.684703	
6.75302	 18.686762	
6.78629	 18.687483	
6.81956	 18.686302	
6.85282	 18.685898	
6.88609	 18.689743	
6.91935	 18.693755	
6.95262	 18.692740	
6.98589	 18.688905	
7.01915	 18.684103	
7.05242	 18.678377	
7.08569	 18.676142	
7.11895	 18.679811	
7.15222	 18.685461	
7.18548	 18.689050	
7.21875	 18.687848	
7.25202	 18.682878	
7.28528	 18.680596	
7.31855	 18.682997	
7.35181	 18.685604	
7.38508	 18.685725	
7.41835	 18.682322	
7.45161	 18.675985	
7.48488	 18.670840	
7.51815	 18.669094	
7.55141	 18.671386	
7.58468	 18.680008	
7.61794	 18.689892	
7.65121	 18.687274	
7.68448	 18.665062	
7.71774	 18.631964	
7.75101	 18.607820	
7.78427	 18.606573	
7.81754	 18.619981	
7.85081	 18.628911	
7.88407	 18.626556	
7.91734	 18.620105	
7.9506	 18.618309	
7.98387	 18.622024	
8.01714	 18.625986	
8.0504	 18.630020	
8.08367	 18.637121	
8.11694	 18.645719	
8.1502	 18.656977	
8.18347	 18.672021	
8.21673	 18.680178	
8.25	 18.670465	
8.28327	 18.651177	
8.31653	 18.645374	
8.3498	 18.663784	
8.38306	 18.691182	
8.41633	 18.707138	
8.4496	 18.707653	
8.48286	 18.698006	
8.51613	 18.679796	
8.5494	 18.655881	
8.58266	 18.637257	
8.61593	 18.633961	
8.64919	 18.643154	
8.68246	 18.653884	
8.71573	 18.659623	
8.74899	 18.660395	
8.78226	 18.657092	
8.81552	 18.651060	
8.84879	 18.647760	
8.88206	 18.652816	
8.91532	 18.665057	
8.94859	 18.676965	
8.98185	 18.677613	
9.01512	 18.660594	
9.04839	 18.638363	
9.08165	 18.633454	
9.11492	 18.651666	
9.14819	 18.681045	
9.18145	 18.705241	
9.21472	 18.711307	
9.24798	 18.700310	
9.28125	 18.683186	
9.31452	 18.666262	
9.34778	 18.654018	
9.38105	 18.649812	
9.41431	 18.646825	
9.44758	 18.636732	
9.48085	 18.625226	
9.51411	 18.627805	
9.54738	 18.649642	
9.58065	 18.675077	
9.61391	 18.683490	
9.64718	 18.668012	
9.68044	 18.636877	
9.71371	 18.608065	
9.74698	 18.596049	
9.78024	 18.600013	
9.81351	 18.614101	
9.84677	 18.633479	
9.88004	 18.646990	
9.91331	 18.648549	
9.94657	 18.645792	
9.97984	 18.642952	
10.0131	 18.637111	
10.0464	 18.630457	
10.0796	 18.627575	
10.1129	 18.630246	
10.1462	 18.634768	
10.1794	 18.630714	
10.2127	 18.619403	
10.246	 18.616240	
10.2792	 18.618618	
10.3125	 18.609794	
10.3458	 18.596503	
10.379	 18.601663	
10.4123	 18.628322	
10.4456	 18.653258	
10.4788	 18.649574	
10.5121	 18.615977	
10.5454	 18.578162	
10.5786	 18.556514	
10.6119	 18.554471	
10.6452	 18.572760	
10.6784	 18.605078	
10.7117	 18.631773	
10.745	 18.639510	
10.7782	 18.635940	
10.8115	 18.637332	
10.8448	 18.648418	
10.878	 18.656018	
10.9113	 18.645865	
10.9446	 18.621283	
10.9778	 18.597392	
11.0111	 18.586036	
11.0444	 18.590070	
11.0776	 18.603038	
11.1109	 18.614062	
11.1442	 18.617169	
11.1774	 18.614927	
11.2107	 18.617098	
11.244	 18.633200	
11.2772	 18.657149	
11.3105	 18.668584	
11.3437	 18.655153	
11.377	 18.625596	
11.4103	 18.599814	
11.4435	 18.590580	
11.4768	 18.598646	
11.5101	 18.618852	
11.5433	 18.644018	
11.5766	 18.668161	
11.6099	 18.689044	
11.6431	 18.703304	
11.6764	 18.704438	
11.7097	 18.695287	
11.7429	 18.688926	
11.7762	 18.691283	
11.8095	 18.699431	
11.8427	 18.710364	
11.876	 18.721495	
11.9093	 18.730220	
11.9425	 18.732892	
11.9758	 18.728077	
12.0091	 18.721887	
12.0423	 18.718974	
12.0756	 18.717051	
12.1089	 18.717767	
12.1421	 18.724965	
12.1754	 18.734125	
12.2087	 18.739668	
12.2419	 18.741650	
12.2752	 18.740003	
12.3085	 18.735974	
12.3417	 18.733777	
12.375	 18.734642	
12.4083	 18.737884	
12.4415	 18.741505	
12.4748	 18.739966	
12.5081	 18.733287	
12.5413	 18.729357	
12.5746	 18.731660	
12.6079	 18.736869	
12.6411	 18.739646	
12.6744	 18.735189	
12.7077	 18.723915	
12.7409	 18.707862	
12.7742	 18.685120	
12.8075	 18.659793	
12.8407	 18.644949	
12.874	 18.644548	
12.9073	 18.648024	
12.9405	 18.647874	
12.9738	 18.647034	
13.0071	 18.647360	
13.0403	 18.644928	
13.0736	 18.640263	
13.1069	 18.639660	
13.1401	 18.642489	
13.1734	 18.643656	
13.2067	 18.644467	
13.2399	 18.646067	
13.2732	 18.645238	
13.3065	 18.640871	
13.3397	 18.634514	
13.373	 18.628958	
13.4062	 18.624390	
13.4395	 18.616772	
13.4728	 18.608201	
13.506	 18.604681	
13.5393	 18.603673	
13.5726	 18.603899	
13.6058	 18.611704	
13.6391	 18.626379	
13.6724	 18.639993	
13.7056	 18.646624	
13.7389	 18.644031	
13.7722	 18.638501	
13.8054	 18.638327	
13.8387	 18.638538	
13.872	 18.629955	
13.9052	 18.617860	
13.9385	 18.614317	
13.9718	 18.620608	
14.005	 18.631023	
14.0383	 18.642948	
14.0716	 18.653959	
14.1048	 18.658411	
14.1381	 18.650630	
14.1714	 18.630403	
14.2046	 18.604181	
14.2379	 18.580077	
14.2712	 18.569076	
14.3044	 18.581844	
14.3377	 18.609690	
14.371	 18.626798	
14.4042	 18.621725	
14.4375	 18.608641	
14.4708	 18.606274	
14.504	 18.617326	
14.5373	 18.630417	
14.5706	 18.639057	
14.6038	 18.646097	
14.6371	 18.651437	
14.6704	 18.654342	
14.7036	 18.658130	
14.7369	 18.662042	
14.7702	 18.662685	
14.8034	 18.661001	
14.8367	 18.661176	
14.87	 18.667759	
14.9032	 18.681671	
14.9365	 18.699425	
